<?xml version="1.0" encoding="utf-8"?>
<!-- Generator: Adobe Illustrator 17.0.0, SVG Export Plug-In . SVG Version: 6.00 Build 0)  -->
<!DOCTYPE svg PUBLIC "-//W3C//DTD SVG 1.1//EN" "http://www.w3.org/Graphics/SVG/1.1/DTD/svg11.dtd">
<svg version="1.1" id="Layer_1" xmlns="http://www.w3.org/2000/svg" xmlns:xlink="http://www.w3.org/1999/xlink" x="0px" y="0px"
	 width="63px" height="48px" viewBox="0 0 63 48" enable-background="new 0 0 63 48" xml:space="preserve">
<path id="green4" fill-rule="evenodd" clip-rule="evenodd" fill="#91C842" d="M59.5,15L59.5,15c1.933,0,3.5,1.567,3.5,3.5v11
	c0,1.933-1.567,3.5-3.5,3.5l0,0c-1.933,0-3.5-1.567-3.5-3.5v-11C56,16.567,57.567,15,59.5,15z"/>
<path id="blue2" fill-rule="evenodd" clip-rule="evenodd" fill="#1BB3CA" d="M31.5,27L31.5,27c1.933,0,3.5,1.567,3.5,3.5v14
	c0,1.933-1.567,3.5-3.5,3.5l0,0c-1.933,0-3.5-1.567-3.5-3.5v-14C28,28.567,29.567,27,31.5,27z"/>
<path id="blue1" fill-rule="evenodd" clip-rule="evenodd" fill="#1BB3CA" d="M31.5,0L31.5,0C33.433,0,35,1.567,35,3.5v14
	c0,1.933-1.567,3.5-3.5,3.5l0,0c-1.933,0-3.5-1.567-3.5-3.5v-14C28,1.567,29.567,0,31.5,0z"/>
<path id="green3" fill-rule="evenodd" clip-rule="evenodd" fill="#91C842" d="M45.5,9L45.5,9c1.933,0,3.5,1.567,3.5,3.5v23
	c0,1.933-1.567,3.5-3.5,3.5l0,0c-1.933,0-3.5-1.567-3.5-3.5v-23C42,10.567,43.567,9,45.5,9z"/>
<path id="green1" fill-rule="evenodd" clip-rule="evenodd" fill="#91C842" d="M3.5,15L3.5,15C5.433,15,7,16.567,7,18.5v11
	C7,31.433,5.433,33,3.5,33l0,0C1.567,33,0,31.433,0,29.5v-11C0,16.567,1.567,15,3.5,15z"/>
<path id="green2" fill-rule="evenodd" clip-rule="evenodd" fill="#91C842" d="M17.5,9L17.5,9c1.933,0,3.5,1.567,3.5,3.5v23
	c0,1.933-1.567,3.5-3.5,3.5l0,0c-1.933,0-3.5-1.567-3.5-3.5v-23C14,10.567,15.567,9,17.5,9z"/>
</svg>
