<?xml version="1.0" encoding="utf-8"?>
<!-- Generator: Adobe Illustrator 17.0.0, SVG Export Plug-In . SVG Version: 6.00 Build 0)  -->
<!DOCTYPE svg PUBLIC "-//W3C//DTD SVG 1.1//EN" "http://www.w3.org/Graphics/SVG/1.1/DTD/svg11.dtd">
<svg version="1.1" id="Layer_1" xmlns="http://www.w3.org/2000/svg" xmlns:xlink="http://www.w3.org/1999/xlink" x="0px" y="0px"
	 width="14px" height="14px" viewBox="0 0 14 14" enable-background="new 0 0 14 14" xml:space="preserve">
<g>
	<path fill="#ABB8BE" d="M10.5,2.5c0.551,0,1,0.449,1,1v7c0,0.551-0.449,1-1,1h-7c-0.551,0-1-0.449-1-1v-7c0-0.551,0.449-1,1-1H10.5
		 M10.5,0.5h-7c-1.657,0-3,1.343-3,3v7c0,1.657,1.343,3,3,3h7c1.657,0,3-1.343,3-3v-7C13.5,1.843,12.157,0.5,10.5,0.5L10.5,0.5z"/>
</g>
</svg>
