<?xml version="1.0" encoding="utf-8"?>

<!-- The icon can be used freely in both personal and commercial projects with no attribution required, but always appreciated. 
You may NOT sub-license, resell, rent, redistribute or otherwise transfer the icon without express written permission from iconmonstr.com -->

<!DOCTYPE svg PUBLIC "-//W3C//DTD SVG 1.1//EN" "http://www.w3.org/Graphics/SVG/1.1/DTD/svg11.dtd">
<svg version="1.1" xmlns="http://www.w3.org/2000/svg" xmlns:xlink="http://www.w3.org/1999/xlink" x="0px" y="0px"
	 width="512px" height="512px" viewBox="0 0 512 512" enable-background="new 0 0 512 512" xml:space="preserve">
<path id="time-7-icon" fill="#3d4d56" d="M311.68,284.086h-85.685v-94.161h27.249v66.912h58.436V284.086z M408.905,231.007H386.38
	c-5.641-31.255-21.444-58.976-43.879-79.604c-10.973-10.09-18.304-23.542-20.8-38.238L310.972,50H180.788l-10.729,63.165
	c-2.503,14.734-9.798,28.121-20.799,38.237c-28.38,26.096-46.165,63.533-46.165,105.126c0,41.613,17.803,79.066,46.206,105.164
	c10.949,10.061,18.277,23.469,20.797,38.123L180.788,462h130.184l10.69-62.185c2.526-14.693,9.818-28.036,20.797-38.123
	c22.709-20.865,38.63-48.994,44.105-80.699h22.341V231.007z M245.88,354.314c-53.938,0-97.785-43.904-97.785-97.786
	c0-53.883,43.848-97.786,97.785-97.786s97.785,43.904,97.785,97.786C343.665,310.411,299.817,354.314,245.88,354.314z"/>
</svg>
