<?xml version="1.0" encoding="utf-8"?>
<!-- Generator: Adobe Illustrator 19.0.0, SVG Export Plug-In . SVG Version: 6.00 Build 0)  -->
<svg version="1.1" id="Layer_1" xmlns="http://www.w3.org/2000/svg" xmlns:xlink="http://www.w3.org/1999/xlink" x="0px" y="0px"
	 viewBox="0 0 156.2 73.2" style="enable-background:new 0 0 156.2 73.2;" xml:space="preserve">
<style type="text/css">
	.st0{fill-rule:evenodd;clip-rule:evenodd;fill:#FFFFFF;}
	.st1{clip-path:url(#SVGID_2_);fill-rule:evenodd;clip-rule:evenodd;fill:#FFFFFF;}
	.st2{clip-path:url(#SVGID_2_);fill:#FFFFFF;}
</style>
<rect y="0" width="156.2" height="73.2"/>
<rect x="16" y="27.6" class="st0" width="4.1" height="4.1"/>
<rect x="28.4" y="27.6" class="st0" width="4.1" height="4.1"/>
<rect x="40.7" y="27.6" class="st0" width="4.1" height="4.1"/>
<rect x="53" y="27.6" class="st0" width="4.1" height="4.1"/>
<g>
	<defs>
		<rect id="SVGID_1_" y="0" width="156.2" height="73.2"/>
	</defs>
	<clipPath id="SVGID_2_">
		<use xlink:href="#SVGID_1_"  style="overflow:visible;"/>
	</clipPath>
	<path class="st1" d="M68.4,38.4l5.2-17.5v13.8c0,1.5-0.1,2.1-0.4,2.4c-0.3,0.3-0.9,0.4-1.6,0.4h-0.3v0.9h7.3v-0.9h-0.4
		c-0.7,0-1.3-0.2-1.5-0.4c-0.4-0.3-0.4-0.9-0.4-2.4V22.8c0-1.5,0.1-2.1,0.4-2.4c0.3-0.3,0.9-0.4,1.5-0.4h0.4v-0.9h-5.7l-4.3,14.2
		l-4.2-14.2h-5.7V20h0.5c1.6,0,1.8,0.4,1.8,2.3v11.2c0,1.8-0.1,2.5-0.4,3c-0.3,0.5-0.9,0.9-1.6,0.9h-0.5v0.9h6v-0.9h-0.4
		c-0.8,0-1.4-0.3-1.7-0.9c-0.4-0.6-0.4-1.1-0.4-3.1V20.8l5.1,17.5H68.4"/>
	<path class="st1" d="M84.8,25.6c1.1,0,2,0.6,2.5,1.7c0.5,1,0.7,2.4,0.7,4.4c0,4.1-1,6.1-3.1,6.1c-2.1,0-3.1-2-3.1-6.2
		c0-1.9,0.2-3.3,0.7-4.3C82.9,26.3,83.8,25.6,84.8,25.6 M84.9,24.7c-3.6,0-6,2.8-6,7.1c0,4.2,2.4,7,5.9,7c3.6,0,5.9-2.8,5.9-7.1
		C90.7,27.5,88.4,24.7,84.9,24.7"/>
	<path class="st1" d="M98.6,25.8c1.9,0,2.8,2,2.8,5.8c0,4-1,6.1-2.9,6.1c-2.1,0-3.2-2.1-3.2-6c0-1.9,0.3-3.3,0.9-4.3
		C96.8,26.4,97.7,25.8,98.6,25.8 M95.6,18.9l-4.2,0.2V20h0.2c1.2,0,1.5,0.4,1.5,2.3v13.2c0,1.7-0.1,2.1-0.3,2.9h1
		c0.7-1.2,0.9-1.4,1.2-1.4c0.1,0,0.3,0.1,0.5,0.2c1.4,1.2,2,1.4,3.4,1.4c3.2,0,5.4-3,5.4-7.2c0-4-2.1-6.7-5.3-6.7
		c-1.6,0-2.8,0.8-3.5,2.2V18.9z"/>
	<path class="st1" d="M108.3,18.9c-0.9,0-1.6,0.7-1.6,1.6c0,0.9,0.7,1.6,1.6,1.6c0.9,0,1.6-0.7,1.6-1.6
		C109.9,19.7,109.2,18.9,108.3,18.9 M109.7,24.9l-4.3,0.2V26h0.3c1.2,0,1.5,0.4,1.5,2.3v6.9c0,1.9-0.3,2.3-1.5,2.3h-0.5v0.9h6.4
		v-0.9h-0.5c-1.2,0-1.5-0.4-1.5-2.3V24.9z"/>
	<path class="st1" d="M117.1,18.9l-4.3,0.2V20h0.3c1.2,0,1.5,0.4,1.5,2.3v12.8c0,1.9-0.3,2.3-1.5,2.3h-0.5v0.9h6.4v-0.9h-0.5
		c-1.2,0-1.5-0.4-1.5-2.3V18.9"/>
	<path class="st1" d="M122.7,30.6c0-3,1.1-4.9,2.7-4.9c1.6,0,2.6,1.8,2.6,4.9H122.7 M130.7,31.6c-0.1-4.3-2.3-7-5.4-7
		c-3.1,0-5.3,2.9-5.3,7c0,4.4,2.2,7.1,5.6,7.1c2.2,0,3.7-1.1,5-3.6l-0.9-0.5c-1,2.1-2,3-3.6,3c-2.3,0-3.3-1.8-3.3-6H130.7z"/>
	<rect x="134.2" y="27.6" class="st1" width="4.1" height="4.1"/>
	<path class="st1" d="M139.8,24.9h0.2c0.2,0,0.3,0.1,0.3,0.2c0,0.2-0.1,0.2-0.3,0.2h-0.2V24.9 M140.3,25.6c0.2-0.1,0.3-0.2,0.3-0.4
		c0-0.1-0.1-0.3-0.2-0.3c-0.1-0.1-0.2-0.1-0.4-0.1h-0.5v1.6h0.3v-0.6h0.2l0.4,0.6h0.4L140.3,25.6z M138.9,24.4
		c-0.3,0.3-0.4,0.6-0.4,1c0,0.4,0.2,0.8,0.4,1c0.3,0.3,0.6,0.4,1.1,0.4c0.4,0,0.8-0.1,1.1-0.4c0.3-0.3,0.4-0.6,0.4-1
		c0-0.4-0.1-0.7-0.4-1c-0.3-0.3-0.6-0.4-1.1-0.4C139.6,24,139.2,24.2,138.9,24.4 M139.1,26.3c-0.2-0.2-0.4-0.5-0.4-0.9
		c0-0.3,0.1-0.6,0.4-0.9c0.2-0.2,0.5-0.4,0.9-0.4c0.3,0,0.6,0.1,0.9,0.4c0.2,0.2,0.4,0.5,0.4,0.9c0,0.3-0.1,0.6-0.4,0.9
		c-0.2,0.2-0.5,0.4-0.9,0.4C139.7,26.7,139.4,26.6,139.1,26.3"/>
	<path class="st1" d="M25.9,19.3c3.3,0.1,5.3,2.3,5.6,6.3l1.1-0.2l-0.2-7.1H16.2L16,25.4l1.1,0.2c0.3-4,2.2-6.2,5.6-6.3v14.8
		c0,2.7-0.5,3.1-3.4,3.2v1.1h9.9v-1.1c-2.9,0-3.4-0.5-3.4-3.2V19.3"/>
	<path class="st2" d="M21.8,46.9l3.4,10.5h-1.4l-1-3.2h-3.5l-1,3.2H17l3.4-10.5H21.8z M22.6,53.1l-1.4-4.8l-1.5,4.8H22.6z"/>
	<path class="st2" d="M30.9,57.3v-1c-0.5,0.8-1.2,1.2-2.1,1.2c-0.9,0-1.5-0.3-1.8-0.9c-0.2-0.3-0.3-0.6-0.3-1c0-0.3,0-0.5,0-0.9
		v-4.7h1.2v4.3c0,0.7,0,1.1,0.1,1.4c0.1,0.3,0.2,0.5,0.4,0.6c0.2,0.1,0.5,0.2,0.8,0.2c0.5,0,0.9-0.2,1.3-0.6
		c0.2-0.3,0.3-0.7,0.4-1.1c0-0.3,0.1-0.7,0.1-1.3v-3.5H32v7.2H30.9z"/>
	<path class="st2" d="M33.5,50.1h1.1V49l1-1.3h0.2v2.4h1.2v1h-1.2v4.3c0,0.5,0,0.7,0.1,0.8c0.1,0.2,0.3,0.3,0.6,0.3
		c0.2,0,0.3,0,0.6-0.1v1c-0.3,0.1-0.6,0.1-0.8,0.1c-0.7,0-1.2-0.2-1.4-0.6c-0.1-0.2-0.1-0.4-0.1-0.8c0,0,0-0.3,0-0.8v-4.1h-1.1V50.1
		z"/>
	<path class="st2" d="M38.6,46.9h1.2V51c0.5-0.7,1.2-1.1,2-1.1c0.9,0,1.5,0.3,1.9,0.9c0.2,0.4,0.3,1,0.3,1.8v4.7h-1.2v-4.5
		c0-0.6-0.1-1.1-0.2-1.3c-0.2-0.4-0.6-0.6-1.1-0.6c-0.7,0-1.2,0.4-1.5,1.1c-0.1,0.3-0.2,1-0.2,2v3.4h-1.2V46.9z"/>
	<path class="st2" d="M51.2,51c0.5,0.7,0.8,1.6,0.8,2.8c0,1.3-0.3,2.3-1,3c-0.5,0.6-1.2,0.8-2.1,0.8c-1,0-1.8-0.4-2.4-1.1
		c-0.5-0.7-0.8-1.6-0.8-2.7c0-1.1,0.2-1.9,0.7-2.6c0.6-0.8,1.4-1.2,2.4-1.2C49.9,49.9,50.7,50.2,51.2,51 M47.6,51.6
		c-0.4,0.5-0.6,1.3-0.6,2.2c0,0.9,0.2,1.6,0.6,2.2c0.3,0.5,0.8,0.7,1.4,0.7c0.5,0,0.9-0.2,1.3-0.6c0.4-0.6,0.6-1.3,0.6-2.3
		c0-0.9-0.2-1.6-0.6-2.2c-0.3-0.5-0.8-0.7-1.4-0.7C48.4,50.8,47.9,51.1,47.6,51.6"/>
	<path class="st2" d="M53.9,50.1H55v1.3c0.5-1.1,1.3-1.6,2.4-1.6v1.3c-0.2,0-0.3,0-0.4,0c-0.5,0-1,0.2-1.3,0.7
		c-0.3,0.4-0.5,0.9-0.5,1.5c0,0.3,0,0.8,0,1.3v2.6h-1.2V50.1z"/>
	<path class="st2" d="M58.8,46.9H60v1.6h-1.2V46.9z M58.8,50.1H60v7.2h-1.2V50.1z"/>
	<polygon class="st2" points="61.7,56.5 65.6,51.1 62,51.1 62,50.1 67,50.1 67,50.9 63.1,56.4 67.2,56.4 67.2,57.3 61.7,57.3 	"/>
	<path class="st2" d="M69.5,54c0,0.5,0.1,0.9,0.2,1.3c0.3,0.9,0.9,1.3,1.7,1.3c0.6,0,1.1-0.3,1.4-0.8c0.1-0.2,0.2-0.5,0.3-0.8h1.1
		c-0.1,0.6-0.3,1.1-0.6,1.5c-0.5,0.7-1.2,1.1-2.2,1.1c-1.1,0-1.8-0.4-2.4-1.2c-0.5-0.7-0.7-1.6-0.7-2.7c0-1.1,0.3-2,0.8-2.7
		c0.5-0.7,1.3-1.1,2.2-1.1c0.8,0,1.4,0.2,1.9,0.7c0.5,0.5,0.9,1.3,1,2.3c0,0.3,0,0.7,0.1,1.1H69.5z M72.7,51.8c-0.3-0.6-0.8-1-1.5-1
		c-0.6,0-1.1,0.3-1.4,0.9c-0.2,0.4-0.3,0.8-0.4,1.4H73C73,52.6,72.9,52.1,72.7,51.8"/>
	<path class="st2" d="M80.7,57.3v-0.9c-0.5,0.7-1.1,1.1-2,1.1c-0.9,0-1.6-0.3-2.1-1c-0.6-0.7-0.8-1.7-0.8-2.9c0-1.2,0.3-2.1,0.8-2.8
		c0.5-0.7,1.2-1,2.1-1c0.9,0,1.5,0.3,2,1.1v-4.1h1.2v10.5H80.7z M78,51c-0.2,0.1-0.4,0.3-0.6,0.5c-0.4,0.5-0.5,1.3-0.5,2.1
		c0,0.8,0.2,1.6,0.5,2.1c0.3,0.5,0.8,0.8,1.3,0.8c0.3,0,0.5-0.1,0.8-0.2c0.3-0.1,0.5-0.3,0.6-0.6c0.3-0.5,0.5-1.2,0.5-2.1
		c0-1-0.2-1.7-0.6-2.2c-0.3-0.5-0.8-0.7-1.4-0.7C78.5,50.8,78.2,50.9,78,51"/>
	<path class="st2" d="M87.4,46.9h3.7c0.6,0,1.1,0.1,1.4,0.2c0.5,0.2,0.9,0.5,1.2,1c0.3,0.5,0.4,1,0.4,1.6c0,0.8-0.3,1.5-0.8,2
		c-0.2,0.2-0.5,0.4-0.9,0.5c0.6,0.1,1,0.5,1.2,1.1c0.1,0.3,0.2,0.6,0.2,1c0,0.1,0,0.5,0.1,1.2c0.1,1,0.2,1.6,0.5,1.8H93
		c-0.1-0.1-0.2-0.3-0.2-0.6c0-0.1,0-0.6-0.1-1.3c-0.1-0.8-0.1-1.4-0.3-1.7c-0.2-0.5-0.5-0.8-0.9-0.9c-0.3-0.1-0.6-0.1-1-0.1h-1.8
		v4.5h-1.3V46.9z M90.4,51.7c0.5,0,1,0,1.2-0.1c0.8-0.2,1.2-0.8,1.2-1.8c0-0.7-0.2-1.2-0.7-1.6c-0.3-0.2-0.8-0.3-1.4-0.3h-2v3.7
		H90.4z"/>
	<path class="st2" d="M97.2,54c0,0.5,0.1,0.9,0.2,1.3c0.3,0.9,0.9,1.3,1.7,1.3c0.6,0,1.1-0.3,1.4-0.8c0.1-0.2,0.2-0.5,0.3-0.8h1.1
		c-0.1,0.6-0.3,1.1-0.6,1.5c-0.5,0.7-1.2,1.1-2.2,1.1c-1.1,0-1.8-0.4-2.4-1.2c-0.5-0.7-0.7-1.6-0.7-2.7c0-1.1,0.3-2,0.8-2.7
		c0.5-0.7,1.3-1.1,2.2-1.1c0.8,0,1.4,0.2,1.9,0.7c0.5,0.5,0.9,1.3,1,2.3c0,0.3,0,0.7,0.1,1.1H97.2z M100.5,51.8
		c-0.3-0.6-0.8-1-1.5-1c-0.6,0-1.1,0.3-1.4,0.9c-0.2,0.4-0.3,0.8-0.4,1.4h3.5C100.8,52.6,100.7,52.1,100.5,51.8"/>
	<path class="st2" d="M104.5,55.3c0,0.9,0.5,1.3,1.4,1.3c0.4,0,0.8-0.1,1-0.3c0.2-0.2,0.3-0.4,0.3-0.7c0-0.4-0.2-0.7-0.6-1
		c-0.2-0.1-0.5-0.3-1.1-0.5c-0.6-0.3-1.1-0.5-1.4-0.8c-0.3-0.4-0.5-0.8-0.5-1.3c0-0.6,0.2-1.1,0.7-1.5c0.4-0.3,0.9-0.5,1.6-0.5
		c0.9,0,1.6,0.3,2,0.9c0.2,0.3,0.3,0.7,0.4,1.1H107c0-0.3-0.1-0.6-0.3-0.8c-0.2-0.3-0.5-0.4-0.9-0.4c-0.4,0-0.6,0.1-0.8,0.3
		c-0.2,0.2-0.2,0.4-0.2,0.7c0,0.3,0.1,0.5,0.3,0.7c0.2,0.2,0.6,0.4,1.2,0.6c0.8,0.3,1.3,0.5,1.6,0.8c0.5,0.4,0.7,0.9,0.7,1.5
		c0,0.7-0.2,1.2-0.7,1.6c-0.4,0.4-1,0.6-1.7,0.6c-1.1,0-1.9-0.3-2.3-1.1c-0.2-0.4-0.4-0.8-0.4-1.2H104.5z"/>
	<path class="st2" d="M111,54c0,0.5,0.1,0.9,0.2,1.3c0.3,0.9,0.9,1.3,1.7,1.3c0.6,0,1.1-0.3,1.4-0.8c0.1-0.2,0.2-0.5,0.3-0.8h1.1
		c-0.1,0.6-0.3,1.1-0.6,1.5c-0.5,0.7-1.2,1.1-2.2,1.1c-1.1,0-1.8-0.4-2.4-1.2c-0.5-0.7-0.7-1.6-0.7-2.7c0-1.1,0.3-2,0.8-2.7
		c0.5-0.7,1.3-1.1,2.2-1.1c0.8,0,1.4,0.2,1.9,0.7c0.5,0.5,0.9,1.3,1,2.3c0,0.3,0,0.7,0.1,1.1H111z M114.2,51.8c-0.3-0.6-0.8-1-1.5-1
		c-0.6,0-1.1,0.3-1.4,0.9c-0.2,0.4-0.3,0.8-0.4,1.4h3.5C114.5,52.6,114.4,52.1,114.2,51.8"/>
	<rect x="117.7" y="46.9" class="st2" width="1.2" height="10.5"/>
	<rect x="121.2" y="46.9" class="st2" width="1.2" height="10.5"/>
	<path class="st2" d="M125.5,54c0,0.5,0.1,0.9,0.2,1.3c0.3,0.9,0.9,1.3,1.7,1.3c0.6,0,1.1-0.3,1.4-0.8c0.1-0.2,0.2-0.5,0.3-0.8h1.1
		c-0.1,0.6-0.3,1.1-0.6,1.5c-0.5,0.7-1.2,1.1-2.2,1.1c-1.1,0-1.8-0.4-2.4-1.2c-0.5-0.7-0.7-1.6-0.7-2.7c0-1.1,0.3-2,0.8-2.7
		c0.5-0.7,1.3-1.1,2.2-1.1c0.8,0,1.4,0.2,1.9,0.7c0.5,0.5,0.9,1.3,1,2.3c0,0.3,0,0.7,0.1,1.1H125.5z M128.8,51.8
		c-0.3-0.6-0.8-1-1.5-1c-0.6,0-1.1,0.3-1.4,0.9c-0.2,0.4-0.3,0.8-0.4,1.4h3.5C129,52.6,128.9,52.1,128.8,51.8"/>
	<path class="st2" d="M132.2,50.1h1.1v1.3c0.5-1.1,1.3-1.6,2.4-1.6v1.3c-0.2,0-0.3,0-0.4,0c-0.6,0-1,0.2-1.3,0.7
		c-0.3,0.4-0.5,0.9-0.5,1.5c0,0.3,0,0.8,0,1.3v2.6h-1.2V50.1z"/>
</g>
</svg>
