<svg xmlns="http://www.w3.org/2000/svg" width="148" height="148" viewBox="0 0 148 148"><defs><style>.a{fill:#f7f7f7;opacity:0.7;}</style></defs><g transform="translate(-605 -3976)"><circle class="a" cx="3.5" cy="3.5" r="3.5" transform="translate(605 3976)"/><circle class="a" cx="3.5" cy="3.5" r="3.5" transform="translate(605 4039)"/><circle class="a" cx="3.5" cy="3.5" r="3.5" transform="translate(605 4007)"/><circle class="a" cx="3.5" cy="3.5" r="3.5" transform="translate(605 4070)"/><ellipse class="a" cx="3.5" cy="3" rx="3.5" ry="3" transform="translate(605 4102)"/><circle class="a" cx="3.5" cy="3.5" r="3.5" transform="translate(668 3976)"/><circle class="a" cx="3.5" cy="3.5" r="3.5" transform="translate(668 4039)"/><circle class="a" cx="3.5" cy="3.5" r="3.5" transform="translate(668 4007)"/><circle class="a" cx="3.5" cy="3.5" r="3.5" transform="translate(668 4070)"/><ellipse class="a" cx="3.5" cy="3" rx="3.5" ry="3" transform="translate(668 4102)"/><circle class="a" cx="3.5" cy="3.5" r="3.5" transform="translate(636 3976)"/><circle class="a" cx="3.5" cy="3.5" r="3.5" transform="translate(636 4039)"/><circle class="a" cx="3.5" cy="3.5" r="3.5" transform="translate(636 4007)"/><circle class="a" cx="3.5" cy="3.5" r="3.5" transform="translate(636 4070)"/><ellipse class="a" cx="3.5" cy="3" rx="3.5" ry="3" transform="translate(636 4102)"/><circle class="a" cx="3.5" cy="3.5" r="3.5" transform="translate(699 3976)"/><circle class="a" cx="3.5" cy="3.5" r="3.5" transform="translate(699 4039)"/><circle class="a" cx="3.5" cy="3.5" r="3.5" transform="translate(699 4007)"/><circle class="a" cx="3.5" cy="3.5" r="3.5" transform="translate(699 4070)"/><ellipse class="a" cx="3.5" cy="3" rx="3.5" ry="3" transform="translate(699 4102)"/><ellipse class="a" cx="3" cy="3.5" rx="3" ry="3.5" transform="translate(731 3976)"/><ellipse class="a" cx="3" cy="3.5" rx="3" ry="3.5" transform="translate(731 4039)"/><ellipse class="a" cx="3" cy="3.5" rx="3" ry="3.5" transform="translate(731 4007)"/><ellipse class="a" cx="3" cy="3.5" rx="3" ry="3.5" transform="translate(731 4070)"/><circle class="a" cx="3" cy="3" r="3" transform="translate(731 4102)"/><ellipse class="a" cx="3" cy="3.5" rx="3" ry="3.5" transform="translate(621 3976)"/><ellipse class="a" cx="3" cy="3.5" rx="3" ry="3.5" transform="translate(621 4039)"/><ellipse class="a" cx="3" cy="3.5" rx="3" ry="3.5" transform="translate(621 4007)"/><ellipse class="a" cx="3" cy="3.5" rx="3" ry="3.5" transform="translate(621 4070)"/><circle class="a" cx="3" cy="3" r="3" transform="translate(621 4102)"/><circle class="a" cx="3.5" cy="3.5" r="3.5" transform="translate(683 3976)"/><circle class="a" cx="3.5" cy="3.5" r="3.5" transform="translate(683 4039)"/><circle class="a" cx="3.5" cy="3.5" r="3.5" transform="translate(683 4007)"/><circle class="a" cx="3.5" cy="3.5" r="3.5" transform="translate(683 4070)"/><ellipse class="a" cx="3.5" cy="3" rx="3.5" ry="3" transform="translate(683 4102)"/><circle class="a" cx="3.5" cy="3.5" r="3.5" transform="translate(652 3976)"/><circle class="a" cx="3.5" cy="3.5" r="3.5" transform="translate(652 4039)"/><circle class="a" cx="3.5" cy="3.5" r="3.5" transform="translate(652 4007)"/><circle class="a" cx="3.5" cy="3.5" r="3.5" transform="translate(652 4070)"/><ellipse class="a" cx="3.5" cy="3" rx="3.5" ry="3" transform="translate(652 4102)"/><circle class="a" cx="3.5" cy="3.5" r="3.5" transform="translate(715 3976)"/><circle class="a" cx="3.5" cy="3.5" r="3.5" transform="translate(715 4039)"/><circle class="a" cx="3.5" cy="3.5" r="3.5" transform="translate(715 4007)"/><circle class="a" cx="3.5" cy="3.5" r="3.5" transform="translate(715 4070)"/><ellipse class="a" cx="3.5" cy="3" rx="3.5" ry="3" transform="translate(715 4102)"/><circle class="a" cx="3.5" cy="3.5" r="3.5" transform="translate(746 3976)"/><circle class="a" cx="3.5" cy="3.5" r="3.5" transform="translate(746 4039)"/><circle class="a" cx="3.5" cy="3.5" r="3.5" transform="translate(746 4007)"/><circle class="a" cx="3.5" cy="3.5" r="3.5" transform="translate(746 4070)"/><ellipse class="a" cx="3.5" cy="3" rx="3.5" ry="3" transform="translate(746 4102)"/><ellipse class="a" cx="3.5" cy="3" rx="3.5" ry="3" transform="translate(605 3992)"/><circle class="a" cx="3.5" cy="3.5" r="3.5" transform="translate(605 4054)"/><circle class="a" cx="3.5" cy="3.5" r="3.5" transform="translate(605 4023)"/><circle class="a" cx="3.5" cy="3.5" r="3.5" transform="translate(605 4086)"/><circle class="a" cx="3.5" cy="3.5" r="3.5" transform="translate(605 4117)"/><ellipse class="a" cx="3.5" cy="3" rx="3.5" ry="3" transform="translate(668 3992)"/><circle class="a" cx="3.5" cy="3.5" r="3.5" transform="translate(668 4054)"/><circle class="a" cx="3.5" cy="3.5" r="3.5" transform="translate(668 4023)"/><circle class="a" cx="3.5" cy="3.5" r="3.5" transform="translate(668 4086)"/><circle class="a" cx="3.5" cy="3.5" r="3.5" transform="translate(668 4117)"/><ellipse class="a" cx="3.5" cy="3" rx="3.5" ry="3" transform="translate(636 3992)"/><circle class="a" cx="3.5" cy="3.5" r="3.5" transform="translate(636 4054)"/><circle class="a" cx="3.5" cy="3.5" r="3.5" transform="translate(636 4023)"/><circle class="a" cx="3.5" cy="3.5" r="3.5" transform="translate(636 4086)"/><circle class="a" cx="3.5" cy="3.5" r="3.5" transform="translate(636 4117)"/><ellipse class="a" cx="3.5" cy="3" rx="3.5" ry="3" transform="translate(699 3992)"/><circle class="a" cx="3.5" cy="3.5" r="3.5" transform="translate(699 4054)"/><circle class="a" cx="3.5" cy="3.5" r="3.5" transform="translate(699 4023)"/><circle class="a" cx="3.5" cy="3.5" r="3.5" transform="translate(699 4086)"/><circle class="a" cx="3.5" cy="3.5" r="3.5" transform="translate(699 4117)"/><circle class="a" cx="3" cy="3" r="3" transform="translate(731 3992)"/><ellipse class="a" cx="3" cy="3.5" rx="3" ry="3.5" transform="translate(731 4054)"/><ellipse class="a" cx="3" cy="3.5" rx="3" ry="3.5" transform="translate(731 4023)"/><ellipse class="a" cx="3" cy="3.5" rx="3" ry="3.5" transform="translate(731 4086)"/><ellipse class="a" cx="3" cy="3.5" rx="3" ry="3.5" transform="translate(731 4117)"/><circle class="a" cx="3" cy="3" r="3" transform="translate(621 3992)"/><ellipse class="a" cx="3" cy="3.5" rx="3" ry="3.5" transform="translate(621 4054)"/><ellipse class="a" cx="3" cy="3.5" rx="3" ry="3.5" transform="translate(621 4023)"/><ellipse class="a" cx="3" cy="3.5" rx="3" ry="3.5" transform="translate(621 4086)"/><ellipse class="a" cx="3" cy="3.5" rx="3" ry="3.5" transform="translate(621 4117)"/><ellipse class="a" cx="3.5" cy="3" rx="3.5" ry="3" transform="translate(683 3992)"/><circle class="a" cx="3.5" cy="3.5" r="3.5" transform="translate(683 4054)"/><circle class="a" cx="3.5" cy="3.5" r="3.5" transform="translate(683 4023)"/><circle class="a" cx="3.5" cy="3.5" r="3.5" transform="translate(683 4086)"/><circle class="a" cx="3.5" cy="3.5" r="3.5" transform="translate(683 4117)"/><ellipse class="a" cx="3.5" cy="3" rx="3.5" ry="3" transform="translate(652 3992)"/><circle class="a" cx="3.5" cy="3.5" r="3.5" transform="translate(652 4054)"/><circle class="a" cx="3.5" cy="3.5" r="3.5" transform="translate(652 4023)"/><circle class="a" cx="3.5" cy="3.5" r="3.5" transform="translate(652 4086)"/><circle class="a" cx="3.5" cy="3.5" r="3.5" transform="translate(652 4117)"/><ellipse class="a" cx="3.5" cy="3" rx="3.5" ry="3" transform="translate(715 3992)"/><circle class="a" cx="3.5" cy="3.5" r="3.5" transform="translate(715 4054)"/><circle class="a" cx="3.5" cy="3.5" r="3.5" transform="translate(715 4023)"/><circle class="a" cx="3.5" cy="3.5" r="3.5" transform="translate(715 4086)"/><circle class="a" cx="3.5" cy="3.5" r="3.5" transform="translate(715 4117)"/><ellipse class="a" cx="3.5" cy="3" rx="3.5" ry="3" transform="translate(746 3992)"/><circle class="a" cx="3.5" cy="3.5" r="3.5" transform="translate(746 4054)"/><circle class="a" cx="3.5" cy="3.5" r="3.5" transform="translate(746 4023)"/><circle class="a" cx="3.5" cy="3.5" r="3.5" transform="translate(746 4086)"/><circle class="a" cx="3.5" cy="3.5" r="3.5" transform="translate(746 4117)"/></g></svg>